<?xml version="1.0" standalone="no"?>
<!DOCTYPE svg PUBLIC "-//W3C//DTD SVG 20010904//EN"
 "http://www.w3.org/TR/2001/REC-SVG-20010904/DTD/svg10.dtd">
<svg version="1.0" xmlns="http://www.w3.org/2000/svg"
 width="512.000000pt" height="512.000000pt" viewBox="0 0 512.000000 512.000000"
 preserveAspectRatio="xMidYMid meet">
<metadata>
Created by potrace 1.11, written by Peter Selinger 2001-2013
</metadata>
<g transform="translate(0.000000,512.000000) scale(0.100000,-0.100000)"
fill="#000000" stroke="none">
<path d="M1659 4796 c-2 -2 -22 -7 -44 -10 -22 -4 -56 -11 -75 -16 -19 -5 -38
-10 -42 -10 -19 -2 -153 -64 -208 -96 -198 -116 -367 -325 -439 -544 -51 -156
-50 -126 -51 -1462 0 -1130 1 -1251 16 -1288 21 -52 58 -78 126 -86 75 -9 132
20 159 80 18 42 19 86 19 1282 0 1351 -2 1295 58 1429 89 200 268 346 479 390
98 21 1726 20 1822 -1 245 -52 462 -280 510 -534 6 -36 10 -488 11 -1285 0
-676 3 -1241 7 -1255 10 -41 34 -70 72 -89 85 -41 183 -15 221 59 20 39 20 55
19 1297 -1 1045 -3 1269 -15 1323 -8 36 -16 74 -18 85 -9 44 -54 155 -89 217
-137 244 -352 411 -635 491 -76 21 -85 22 -988 24 -501 2 -913 1 -915 -1z"/>
<path d="M1803 4145 c-35 -8 -86 -26 -115 -42 -67 -36 -155 -124 -191 -190
-57 -107 -57 -96 -57 -1208 1 -1078 -1 -1042 45 -1150 43 -100 164 -211 267
-244 46 -15 54 5 -96 -224 -376 -575 -364 -554 -360 -640 1 -26 10 -60 20 -75
25 -39 66 -72 78 -64 6 4 531 9 1166 12 635 3 1162 8 1170 11 19 6 49 35 76
74 23 33 26 108 6 156 -5 14 -61 104 -124 200 -63 96 -143 219 -179 273 -35
55 -90 138 -121 185 l-57 86 77 37 c92 43 166 112 210 196 65 121 62 73 61
1202 l0 1025 -24 69 c-55 158 -164 261 -332 311 -68 21 -1427 20 -1520 0z
m1557 -1265 l0 -480 -800 0 -800 0 0 480 0 480 800 0 800 0 0 -480z m-342
-1681 l53 -79 -501 0 c-275 0 -500 3 -500 6 0 3 24 39 53 79 l52 74 395 0 395
0 53 -80z m297 -471 c28 -40 52 -76 53 -80 2 -4 -361 -8 -807 -8 -446 0 -811
2 -811 5 0 4 33 60 77 133 l13 22 713 0 712 0 50 -72z"/>
</g>
</svg>
